<?xml version="1.0" standalone="no"?>
<!DOCTYPE svg PUBLIC "-//W3C//DTD SVG 20010904//EN"
 "http://www.w3.org/TR/2001/REC-SVG-20010904/DTD/svg10.dtd">
<svg version="1.0" xmlns="http://www.w3.org/2000/svg"
 width="512.000000pt" height="512.000000pt" viewBox="0 0 512.000000 512.000000"
 preserveAspectRatio="xMidYMid meet">
<metadata>
Created by potrace 1.11, written by Peter Selinger 2001-2013
</metadata>
<g transform="translate(0.000000,512.000000) scale(0.100000,-0.100000)"
fill="#000000" stroke="none">
<path d="M2447 5105 c-174 -66 -261 -265 -188 -429 l20 -46 271 0 271 0 20 48
c30 69 35 139 14 203 -47 146 -151 229 -295 236 -49 2 -88 -2 -113 -12z"/>
<path d="M1905 4020 c-280 -58 -482 -277 -517 -559 -14 -109 6 -240 50 -336
22 -46 27 -65 18 -65 -8 0 -51 -19 -97 -42 -122 -61 -222 -163 -282 -289 -53
-111 -67 -169 -67 -287 0 -121 35 -242 98 -345 l24 -37 -31 -32 c-37 -38 -55
-109 -40 -162 13 -49 62 -102 105 -116 36 -12 105 -10 137 4 16 8 17 -4 17
-176 0 -165 2 -187 18 -201 14 -13 44 -17 132 -19 l114 -3 67 -170 c268 -678
460 -1140 477 -1146 42 -16 310 -39 443 -38 179 1 408 28 420 49 9 15 315 775
454 1125 l71 180 114 3 c157 3 150 -7 150 226 -1 179 -1 181 -26 210 l-25 29
-35 -34 c-30 -29 -42 -34 -97 -37 -54 -3 -67 0 -100 22 -47 32 -57 32 -104 0
-33 -22 -46 -25 -100 -22 -55 3 -67 8 -96 36 -33 32 -33 32 -52 12 -17 -19
-20 -19 -36 -4 -28 25 -52 99 -46 139 5 30 3 35 -14 35 -11 0 -30 5 -42 11
-28 14 -77 60 -77 71 0 5 -11 26 -25 46 -32 47 -31 52 6 52 36 0 62 -13 107
-51 38 -34 53 -36 75 -11 14 16 13 23 -16 84 -21 46 -38 69 -53 72 -12 3 -41
22 -64 41 -23 19 -46 35 -51 35 -4 0 -24 -14 -43 -30 -39 -35 -44 -31 -53 39
-5 48 -5 50 28 71 40 25 118 23 147 -4 10 -9 21 -16 23 -16 3 0 5 32 5 70 0
39 -4 70 -8 70 -4 0 -25 16 -47 35 -21 19 -43 35 -49 35 -5 0 -29 -16 -52 -35
-24 -20 -45 -33 -48 -31 -10 11 22 130 40 148 32 32 121 18 157 -26 18 -22 30
-20 40 7 5 12 20 46 34 75 l25 52 -40 0 c-43 0 -71 11 -105 43 -22 20 -22 21
-5 40 16 18 15 21 -36 68 -88 81 -278 159 -386 159 -34 0 -39 3 -56 43 -34 76
-50 159 -50 252 0 118 21 201 76 304 l44 84 -73 71 c-85 82 -181 136 -297 166
-78 21 -202 25 -275 10z"/>
<path d="M3354 3080 c-104 -15 -233 -71 -309 -134 l-30 -25 22 -22 c21 -21 23
-21 45 -5 92 67 92 67 140 65 35 -2 55 3 85 22 52 34 150 76 198 85 l40 8 -40
7 c-48 9 -83 9 -151 -1z"/>
</g>
</svg>
