<svg xmlns="http://www.w3.org/2000/svg"><symbol id="basket-red" viewBox="0 0 21 20"><path d="M5.888 4.031L6.922 13h10.45l1.176-8.969z"/><circle cx="6.984" cy="18" r="2"/><circle cx="15.984" cy="18" r="2"/><path d="M5.657 2.031L5.422 0H0v2h3.64l1.5 13h13.988l1.699-12.969H5.657zM17.372 13H6.922L5.888 4.031h12.66L17.372 13z"/></symbol><symbol id="basket" viewBox="0 0 21 20"><path d="M5.657 2.031L5.422 0H0v2h3.64l1.5 13h13.988l1.699-12.969H5.657zM17.372 13H6.922L5.888 4.031h12.66L17.372 13z"/><circle cx="6.984" cy="18" r="2"/><circle cx="15.984" cy="18" r="2"/></symbol><symbol id="bg-post" viewBox="0 0 560 220"><path d="M560 205c0 8.25-6.75 15-15 15H15c-8.25 0-15-6.75-15-15V15C0 6.75 6.75 0 15 0h530c8.25 0 15 6.75 15 15v190z"/><path d="M545 0H20.729L0 20.729V205c0 8.25 6.75 15 15 15h530c8.25 0 15-6.75 15-15V15c0-8.25-6.75-15-15-15zM10.246.79A15.107 15.107 0 0 0 .79 10.246L10.246.79z"/><path d="M20.741 0H15c-1.655 0-3.245.283-4.737.784L.784 10.263A14.848 14.848 0 0 0 0 15v5.741L20.741 0zM0 40.116L40.116 0h-9.693L0 30.423zm0 19.388L59.504 0h-9.693L0 49.811zm0 19.387L78.891 0h-9.694L0 69.197zm0 19.387L98.278 0h-9.694L0 88.584zm0 19.387L117.665 0h-9.694L0 107.971zm0 19.387L137.052 0h-9.694L0 127.358zm0 19.386L156.438 0h-9.693L0 146.745zm0 19.388L175.826 0h-9.693L0 166.134zm0 19.387L195.213 0h-9.693L0 185.521zM204.907 0L0 204.907V205c0 2.746.761 5.317 2.063 7.538L214.601 0h-9.694zM14.036 219.951L233.987 0h-9.694L6.775 217.519a14.889 14.889 0 0 0 7.261 2.432zm19.339.049l220-220h-9.695L23.681 220zm19.387 0l220-220h-9.695L43.068 220zm19.387 0L292.148 0h-9.694L62.455 220zm19.387 0L311.535 0h-9.693l-220 220zm19.387 0l220-220h-9.694l-220 220zm19.387 0l220-220h-9.695L120.616 220zm19.387 0L369.696 0h-9.693l-220 220zm19.387 0L389.083 0h-9.692L159.39 220zm19.387 0L408.472 0h-9.695l-220 220zm19.387 0L427.857 0h-9.693L198.165 220zm19.388 0L447.247 0h-9.695l-220 220zm19.386 0L466.633 0h-9.695l-220 220zm19.389 0l220-220h-9.696l-220 220zm19.385 0l220-220h-9.693l-220 220zm19.388 0l220-220H515.1l-220 220zm19.387 0l220-220h-9.695l-220 220zm19.387 0L557.22 6.349a15.177 15.177 0 0 0-5.137-4.557L333.874 220h9.694zm19.387 0L560 22.955V15c0-.555-.036-1.102-.096-1.642L353.262 220h9.693zm19.387 0L560 42.342v-9.694L372.648 220zm19.387 0L560 61.729v-9.692L392.036 220zm19.388 0L560 81.118v-9.696L411.423 220zm19.387 0L560 100.504v-9.695L430.81 220zm19.388 0L560 119.892v-9.696L450.196 220zm19.386 0L560 139.278v-9.695L469.583 220zm19.387 0L560 158.665v-9.693L488.972 220zm19.387 0L560 178.052v-9.695L508.357 220zm19.386 0L560 197.438v-9.692L527.746 220zm22.36-12.665l-12.463 12.463c6.386-1.011 11.452-6.077 12.463-12.463z"/></symbol><symbol id="cross-big" viewBox="0 0 18 17"><path d="M17.454 1.46L16.04.046 9 7.086 1.96.046.546 1.46l7.04 7.04-7.04 7.04 1.414 1.414L9 9.914l7.04 7.04 1.414-1.414-7.04-7.04z"/></symbol><symbol id="entrance" viewBox="0 0 21 19"><path d="M6 14.875L12.917 9.5 6 4.125v2.917H-.042v4.917H6z"/><path d="M18 0H5C3.9 0 3 .9 3 2v2h2V2h13v15H5v-2H3v2c0 1.1.9 2 2 2h13c1.1 0 2-.9 2-2V2c0-1.1-.9-2-2-2z"/></symbol><symbol id="filter-button" viewBox="0 0 20 23"><path opacity=".3" d="M10 20C4.477 20 0 15.522 0 10v2c0 5.522 4.477 10 10 10 5.522 0 10-4.478 10-10v-2c0 5.522-4.478 10-10 10z"/><circle cx="10" cy="10" r="10"/><circle cx="10" cy="10" r="2"/></symbol><symbol id="hit" viewBox="0 0 61 61"><circle cx="30.5" cy="30.5" r="30.5"/><path d="M19.985 18.27c-.915 2.683-1.718 5.384-2.472 8.094-.543-2.863-.921-5.756-.958-8.715-.005-.431-1.939-.11-1.932.518.052 4.243.8 8.354 1.747 12.432-1.196 4.58-2.311 9.18-3.579 13.771-.109.394 1.771.138 1.904-.344.902-3.265 1.726-6.535 2.556-9.8.805 3.204 1.644 6.407 2.273 9.657.098.508 2.041.045 1.932-.518-.864-4.462-2.12-8.836-3.146-13.247 1.068-4.086 2.202-8.157 3.578-12.191.124-.361-1.737-.145-1.903.343zm14.41.528c.049-1.047-1.919-.794-1.963.128-.004.08-.004.159-.008.238-.039.065-.084.128-.101.204-1.004 4.463-2.611 8.729-4.056 13.06-.644 1.93-1.139 3.898-1.666 5.856-.139-6.623-.135-13.237-.165-19.871-.005-1.042-1.965-.769-1.961.134.037 8.337.018 16.641.303 24.971a.644.644 0 0 0-.034.301l.064.445c.123.856 1.959.48 1.944-.317.005-.011.016-.018.021-.029 1.636-4.171 2.478-8.591 3.894-12.838.521-1.558 1.048-3.108 1.561-4.662-.071 5.987.058 11.969.211 17.961.026 1.012 1.58.771 1.91.065l.056-.119c.112-.239.088-.423-.015-.558-.211-8.333-.389-16.635.005-24.969zM47.32 17.66c-3.158.38-6.312.227-9.478.048-.491-.028-2.24.851-1.221.908 1.093.062 2.182.109 3.271.145-.093.081-.161.167-.157.265.295 8.408-1.054 17.239.191 25.564.063.424 2.01.005 1.932-.518-1.229-8.229.069-16.951-.185-25.27 1.776.012 3.551-.052 5.33-.266.857-.102 1.669-1.039.317-.876z"/></symbol><symbol id="loupe" viewBox="0 0 17 17"><path d="M16.958 15.527L11.75 10.32A6.455 6.455 0 0 0 13 6.5 6.5 6.5 0 1 0 6.5 13a6.465 6.465 0 0 0 3.839-1.263l5.205 5.204 1.414-1.414zM6.5 11C4.019 11 2 8.981 2 6.5S4.019 2 6.5 2 11 4.019 11 6.5 8.981 11 6.5 11z"/></symbol><symbol id="pin" viewBox="0 0 80 140"><path d="M40 7.101c15.622 0 28.285 12.664 28.285 28.286 0 5.112-1.362 9.902-3.734 14.041 4.503.643 7.971 4.506 7.971 9.188a9.292 9.292 0 0 1-9.293 9.293c-4.682 0-8.545-3.467-9.188-7.971-.353.201-.709.396-1.07.583-1.012 6.26-6.426 11.045-12.971 11.045-6.546 0-11.96-4.786-12.972-11.046a29.753 29.753 0 0 1-1.069-.582c-.644 4.504-4.505 7.971-9.188 7.971-5.132 0-9.292-4.161-9.292-9.293 0-4.682 3.466-8.544 7.97-9.188a28.146 28.146 0 0 1-3.735-14.041C11.714 19.765 24.378 7.101 40 7.101m0-7C20.543.101 4.714 15.93 4.714 35.387c0 3.646.568 7.263 1.668 10.713C2.763 49.116.479 53.652.479 58.615c0 8.984 7.309 16.294 16.292 16.294 3.157 0 6.141-.925 8.672-2.529 3.681 3.846 8.86 6.187 14.557 6.187s10.875-2.341 14.556-6.187a16.181 16.181 0 0 0 8.673 2.529c8.984 0 16.293-7.31 16.293-16.294 0-4.962-2.284-9.499-5.903-12.516a35.317 35.317 0 0 0 1.667-10.713C75.285 15.93 59.456.101 40 .101z"/><path d="M63.229 78.908c-2.835 0-5.56-.598-8.04-1.681-.371.3-.761.574-1.149.851l.525.525-3.898 3.898-1.673-1.673c-.687.273-1.386.517-2.101.728l2.359 2.359-3.898 3.898-3.898-3.898 1.556-1.556c-.989.122-1.989.206-3.011.206-.988 0-1.958-.079-2.917-.194l1.543 1.544-3.898 3.898-3.898-3.898 2.339-2.34a23.605 23.605 0 0 1-2.104-.724L29.417 82.5l-3.898-3.898.49-.489c-.405-.288-.811-.575-1.197-.887a20.059 20.059 0 0 1-8.039 1.681c-.204 0-.401-.024-.603-.03a3.467 3.467 0 0 0 .16 1.622l20.375 57.125c.024.068.059.128.087.193.03.07.058.139.092.206.07.14.15.271.237.397.029.042.054.087.084.129.125.166.262.32.412.459.032.03.069.055.103.084.125.107.254.205.392.294.058.037.118.07.179.104.138.077.279.145.426.202.038.015.07.038.108.052.02.007.04.009.059.016.127.043.258.074.391.103.055.012.109.029.164.038.185.03.373.048.562.048s.377-.018.562-.048c.057-.009.113-.027.17-.04.13-.027.259-.058.384-.101.021-.007.041-.009.061-.016.04-.014.072-.037.111-.053.145-.058.285-.124.421-.2a3.34 3.34 0 0 0 .183-.106c.136-.088.265-.186.388-.291.034-.03.072-.056.105-.086.15-.14.287-.294.412-.46.03-.04.054-.084.082-.125.088-.128.169-.261.24-.401.033-.066.062-.134.09-.201.028-.066.064-.128.089-.197L63.672 80.5a3.467 3.467 0 0 0 .16-1.622c-.202.006-.399.03-.603.03zM49.252 94.541l-3.898 3.898-3.898-3.898 3.898-3.898 3.898 3.898zm-13.109 5.313l3.898-3.898 3.898 3.898-3.898 3.898-3.898-3.898zm7.796 10.625l-3.898 3.898-3.898-3.898 3.898-3.898 3.898 3.898zM40.041 85.33l3.898 3.898-3.898 3.898-3.898-3.898 3.898-3.898zm-1.414 9.211l-3.898 3.898-3.898-3.898 3.898-3.898 3.898 3.898zM23.724 80.397l.38-.38 3.898 3.898-2.229 2.229-2.049-5.747zm2.793 7.832l2.899-2.899 3.898 3.898-3.898 3.898-1.791-1.791-1.108-3.106zm2.794 7.832l.105-.105 3.898 3.898-1.954 1.954-2.049-5.747zm4.205 11.792l-1.413-3.96 2.625-2.625 3.898 3.898-3.898 3.898-1.212-1.211zm3.431 9.618l-1.863-5.223 3.543 3.543-1.68 1.68zm3.053 8.56l-2.31-6.476 2.351-2.351 2.29 2.29L40 126.031zm3.074-8.621l-1.619-1.619 3.415-3.415-1.796 5.034zm3.364-9.431l-1.085 1.085-3.898-3.898 3.898-3.898 2.564 2.564-1.479 4.147zm2.223-6.232l-1.894-1.894 3.898-3.898.046.045-2.05 5.747zm3.668-10.283l-1.663 1.663-3.898-3.898 3.898-3.898 2.838 2.838-1.175 3.295zm1.919-5.38l-2.168-2.168 3.898-3.898.319.319-2.049 5.747z"/></symbol><symbol id="ruble" viewBox="0 0 31 36"><path d="M11 21h7.451c5.247 0 9.5-4.253 9.5-9.5S23.698 2 18.451 2H6v14H2v5h4v3H2v5h4v4h5v-4h15v-5H11v-3zm0-14h7.451v-.03a4.53 4.53 0 0 1 0 9.06V16H11V7z"/></symbol><symbol id="select-arrow" viewBox="0 0 9 5"><path d="M4.5 5L0 0h9z"/></symbol></svg>